<?xml version="1.0" standalone="no"?>
<!DOCTYPE svg PUBLIC "-//W3C//DTD SVG 1.1//EN" "http://www.w3.org/Graphics/SVG/1.1/DTD/svg11.dtd" >
<!--
2013-9-30: Created.
-->
<svg>
<metadata>
Created by iconfont
</metadata>
<defs>

<font id="iconfont" horiz-adv-x="1024" >
  <font-face
    font-family="iconfont"
    font-weight="500"
    font-stretch="normal"
    units-per-em="1024"
    ascent="896"
    descent="-128"
  />
    <missing-glyph />
    
    <glyph glyph-name="fail" unicode="&#58885;" d="M512 451.872L926.08 865.952a48 48 0 0 0 67.84-67.904L579.904 384l414.08-414.08a48 48 0 0 0-67.904-67.84L512 316.096 97.92-97.952a48 48 0 0 0-67.84 67.904L444.096 384 30.048 798.08A48 48 0 0 0 97.952 865.92L512 451.904z"  horiz-adv-x="1024" />

    
    <glyph glyph-name="menu" unicode="&#58886;" d="M0 896h1462.857143v-146.285714H0V896z m0-438.857143h1462.857143v-146.285714H0V457.142857z m0-438.857143h1462.857143v-146.285714H0v146.285714z"  horiz-adv-x="1462" />

    
    <glyph glyph-name="nav-home" unicode="&#58887;" d="M480 884.6336l-460.8-373.9136A52.224 52.224 0 0 1 0 470.1696v-546.2528C0-104.7552 22.9376-128 51.2-128h256c28.2624 0 51.2 23.2448 51.2 51.9168v207.7184c0 86.016 68.7616 155.8016 153.6 155.8016s153.6-69.7344 153.6-155.8016v-207.7184c0-28.672 22.9376-51.9168 51.2-51.9168h256c28.2624 0 51.2 23.2448 51.2 51.9168V470.2208c0 15.7184-7.0656 30.6688-19.2 40.4992l-460.8 373.9136a50.688 50.688 0 0 1-64 0zM512 844.8l460.8-374.4768V-76.8h-256v208.0256c0 114.8928-91.648 208.0768-204.8 208.0768s-204.8-93.184-204.8-208.0768V-76.8H51.2V470.3232L512 844.8z"  horiz-adv-x="1024" />

    
    <glyph glyph-name="nav-sysrecord" unicode="&#58888;" d="M512-128C229.2224-128 0 101.2224 0 384S229.2224 896 512 896s512-229.2224 512-512-229.2224-512-512-512z m0 51.2a460.8 460.8 0 1 1 0 921.6 460.8 460.8 0 0 1 0-921.6z m38.4 448h-25.6l25.6-25.6v25.6z m17.408 16.2304h223.488c37.2224 0 37.2224-54.6304 0-54.6304h-251.392a27.648 27.648 0 0 0-27.904 27.2896V715.1104c0 36.352 55.808 36.352 55.808 0v-327.68z m-17.408-16.2304h-25.6l25.6-25.6v25.6z"  horiz-adv-x="1024" />

    
    <glyph glyph-name="nav-utilitybills" unicode="&#58889;" d="M185.6 844.8c12.0832-20.1728 19.2-44.9536 19.2-71.68v-721.92h1.7408c0-42.3936 35.584-76.8 79.4624-76.8 43.8784 0 79.4624 34.4064 79.4624 76.8V76.8H870.4V768A76.8 76.8 0 0 1 793.6 844.8H185.6zM102.4 896h691.2A128 128 0 0 0 921.6 768V25.6h102.4v-25.6a128 128 0 0 0-128-128h-614.4A128 128 0 0 0 153.6 0V742.4H0v30.72C0 840.96 45.824 896 102.4 896z m768-870.4H415.744c-12.2368-58.4192-65.6896-102.4-129.7408-102.4-5.888 0-11.7248 0.3584-17.408 1.0752 4.1984-0.7168 8.5504-1.0752 13.0048-1.0752h614.4a76.8 76.8 0 0 1 72.448 51.2H870.4v51.2zM51.2 806.4h102.4c-10.24 15.3088-29.3376 25.6-51.2 25.6-21.8624 0-40.96-10.2912-51.2-25.6zM332.8 691.2h409.6a25.6 25.6 0 1 0 0-51.2h-409.6a25.6 25.6 0 0 0 0 51.2z m0-204.8h256a25.6 25.6 0 1 0 0-51.2h-256a25.6 25.6 0 0 0 0 51.2z m0-204.8h409.6a25.6 25.6 0 1 0 0-51.2h-409.6a25.6 25.6 0 1 0 0 51.2z"  horiz-adv-x="1024" />

    
    <glyph glyph-name="timeout" unicode="&#58890;" d="M512-128C229.2224-128 0 101.2224 0 384S229.2224 896 512 896s512-229.2224 512-512-229.2224-512-512-512z m0 76.8c240.3584 0 435.2 194.8416 435.2 435.2S752.3584 819.2 512 819.2 76.8 624.3584 76.8 384s194.8416-435.2 435.2-435.2z m38.4 473.6H716.8a38.4 38.4 0 0 0 0-76.8h-204.8a38.4 38.4 0 0 0-38.4 38.4V716.8a38.4 38.4 0 0 0 76.8 0v-294.4z"  horiz-adv-x="1024" />

    
    <glyph glyph-name="nav-tenant" unicode="&#58891;" d="M512 179.2a358.4 358.4 0 1 0 0 716.8 358.4 358.4 0 0 0 0-716.8z m0 51.2a307.2 307.2 0 1 1 0 614.4 307.2 307.2 0 0 1 0-614.4z m-384-102.4h768a128 128 0 1 0 0-256h-768a128 128 0 1 0 0 256z m0-51.2a76.8 76.8 0 0 1 0-153.6h768a76.8 76.8 0 0 1 0 153.6h-768z m665.6-51.2h51.2a25.6 25.6 0 1 0 0-51.2h-51.2a25.6 25.6 0 1 0 0 51.2z"  horiz-adv-x="1024" />

    
    <glyph glyph-name="search" unicode="&#58892;" d="M493.727164 54.852702a347.420134 347.420134 0 1 1 0 694.840268 347.420134 347.420134 0 0 1 0-694.840268z m397.009787 53.831836l111.905854-111.832713a73.141081 73.141081 0 0 0-103.494629-103.421488l-111.905854 111.905853a493.702296 493.702296 0 1 0 103.421488 103.421489z"  horiz-adv-x="1024" />

    
    <glyph glyph-name="success" unicode="&#58893;" d="M106.8032 520.123733A51.2 51.2 0 1 1 29.696 452.676267l477.866667-546.133334a51.2 51.2 0 0 1 77.6192 0.682667l750.933333 887.466667a51.2 51.2 0 1 1-78.165333 66.116266L545.450667 18.7392 106.8032 520.157867z"  horiz-adv-x="1365" />

    
    <glyph glyph-name="clock" unicode="&#58894;" d="M512-128A512 512 0 1 0 512 896a512 512 0 0 0 0-1024z m0 73.142857A438.857143 438.857143 0 1 1 512 822.857143a438.857143 438.857143 0 0 1 0-877.714286zM339.821714 263.606857L475.428571 399.140571V713.142857a36.571429 36.571429 0 0 0 73.142858 0v-344.283428L391.606857 211.821714a36.571429 36.571429 0 1 0-51.785143 51.785143z"  horiz-adv-x="1024" />

    
    <glyph glyph-name="del" unicode="&#58895;" d="M512-128A512 512 0 1 0 512 896a512 512 0 0 0 0-1024z m0 572.330667L328.874667 627.541333a42.666667 42.666667 0 1 1-60.416-60.416L451.669333 384 268.458667 200.874667a42.666667 42.666667 0 1 1 60.416-60.416L512 323.669333l183.125333-183.210666a42.666667 42.666667 0 1 1 60.416 60.416L572.330667 384l183.210666 183.125333a42.666667 42.666667 0 1 1-60.416 60.416L512 444.330667z"  horiz-adv-x="1024" />

    
    <glyph glyph-name="addtree" unicode="&#58896;" d="M0 896m64 0l384 0q64 0 64-64l0-640q0-64-64-64l-384 0q-64 0-64 64l0 640q0 64 64 64ZM844.8 768m25.6 0l128 0q25.6 0 25.6-25.6l0-128q0-25.6-25.6-25.6l-128 0q-25.6 0-25.6 25.6l0 128q0 25.6 25.6 25.6ZM230.4 588.8m12.8 0l204.8 0q12.8 0 12.8-12.8l0 0q0-12.8-12.8-12.8l-204.8 0q-12.8 0-12.8 12.8l0 0q0 12.8 12.8 12.8ZM230.4 486.4m12.8 0l281.6 0q12.8 0 12.8-12.8l0 0q0-12.8-12.8-12.8l-281.6 0q-12.8 0-12.8 12.8l0 0q0 12.8 12.8 12.8ZM230.4 384m12.8 0l128 0q12.8 0 12.8-12.8l0 0q0-12.8-12.8-12.8l-128 0q-12.8 0-12.8 12.8l0 0q0 12.8 12.8 12.8Z"  horiz-adv-x="1024" />

    
    <glyph glyph-name="calendar" unicode="&#58897;" d="M1109.333333 640V725.333333a85.333333 85.333333 0 0 1-85.333333 85.333334H170.666667a85.333333 85.333333 0 0 1-85.333334-85.333334v-85.333333h1024z m0-85.333333H85.333333v-512a85.333333 85.333333 0 0 1 85.333334-85.333334h853.333333a85.333333 85.333333 0 0 1 85.333333 85.333334V554.666667zM170.666667 896h853.333333a170.666667 170.666667 0 0 0 170.666667-170.666667v-682.666666a170.666667 170.666667 0 0 0-170.666667-170.666667H170.666667a170.666667 170.666667 0 0 0-170.666667 170.666667V725.333333a170.666667 170.666667 0 0 0 170.666667 170.666667z m128-512h426.666666a42.666667 42.666667 0 0 0 0-85.333333h-426.666666a42.666667 42.666667 0 0 0 0 85.333333z m0-170.666667h597.333333a42.666667 42.666667 0 1 0 0-85.333333h-597.333333a42.666667 42.666667 0 0 0 0 85.333333z"  horiz-adv-x="1194" />

    
    <glyph glyph-name="addmeter" unicode="&#58898;" d="M950.528 851.6864L767.8848 647.6032a12.8 12.8 0 0 1 9.536-21.3376h71.936L806.9376 491.904a12.8 12.8 0 0 1 21.7472-12.3904l182.6176 204.0832a12.8 12.8 0 0 1-9.536 21.3376h-71.936L972.2624 839.296a12.8 12.8 0 0 1-21.7472 12.3904zM6.4 896m64 0l537.6 0q64 0 64-64l0-768q0-64-64-64l-537.6 0q-64 0-64 64l0 768q0 64 64 64ZM300.8 665.6m12.8 0l204.8 0q12.8 0 12.8-12.8l0 0q0-12.8-12.8-12.8l-204.8 0q-12.8 0-12.8 12.8l0 0q0 12.8 12.8 12.8ZM300.8 588.8m12.8 0l409.6 0q12.8 0 12.8-12.8l0 0q0-12.8-12.8-12.8l-409.6 0q-12.8 0-12.8 12.8l0 0q0 12.8 12.8 12.8Z"  horiz-adv-x="1024" />

    
    <glyph glyph-name="nav-sysconfig" unicode="&#58899;" d="M1041.112396 431.424189c1.842133-20.775171 2.7632-36.535646 2.7632-47.127913 0-9.978223-0.869896-24.817631-2.558519-44.569394a42.931942 42.931942 0 0 0-42.471409-40.629276h-18.370163v-0.05117A63.758284 63.758284 0 0 1 921.066702 258.41716c-0.921067-2.046815-24.203586-58.231884-25.175823-60.432209a63.962965 63.962965 0 0 1 13.508978-70.461603l14.99292-14.941749 0.05117-0.05117a42.471409 42.471409 0 0 0 2.865541-53.421869c-1.228089-1.43277-22.975497-26.352742-33.260742-36.637986a975.921342 975.921342 0 0 0-36.484476-33.209572 42.880772 42.880772 0 0 0-55.161661 4.349482 627.860469 627.860469 0 0 1-16.374519 16.374519 63.655943 63.655943 0 0 1-64.730521 12.025037c-4.298311-1.535111-62.683706-25.687527-67.084358-27.785512-21.747408-10.234074-36.842668-32.237335-36.842669-57.924862v-18.984208c0-22.00326-16.835053-40.168742-38.275438-42.369068l0.102341-0.204681a495.329204 495.329204 0 0 0-93.846463 0v0.204681a42.522579 42.522579 0 0 0-38.173098 42.369068v18.779527h-0.204681a63.655943 63.655943 0 0 1-41.755024 59.869336c-1.43277 0.511704-56.952624 23.640712-58.180714 24.152415a63.962965 63.962965 0 0 1-71.689691-12.946104l-0.358193 0.307022-18.114312-18.063141a42.62492 42.62492 0 0 0-48.867705-0.972237c-2.200326 1.790963-27.632001 24.101245-37.610224 34.079468a1023.151595 1023.151595 0 0 0-34.181809 37.661394 42.57375 42.57375 0 0 0 5.270549 53.882402l13.406637 13.508978a63.502432 63.502432 0 0 1 12.946104 71.740862c-0.665215 1.3816-23.691882 57.054965-24.305927 58.743588a63.860625 63.860625 0 0 1-59.613483 40.987468h-19.13772a42.57375 42.57375 0 0 0-41.857364 35.102876 950.745518 950.745518 0 0 0-2.405008 49.788772V384.296276c0 14.020682 2.149156 47.639617 2.405008 50.095795 3.581926 19.956445 20.979853 35.051705 41.959705 35.051705h19.035379v0.153511a63.655943 63.655943 0 0 1 59.613483 41.038639L167.838821 569.533024a63.962965 63.962965 0 0 1-12.946104 71.587351l-13.457808 13.406638a42.471409 42.471409 0 0 0-4.861185 54.445276c1.586282 1.995645 23.691882 27.120297 33.721275 37.14969 10.029393 10.029393 35.358727 32.237335 37.303202 33.772446a42.471409 42.471409 0 0 0 54.240594-4.912356l13.611319-13.304296a63.502432 63.502432 0 0 1 71.740862-12.997275c1.3816 0.665215 2.558519 1.228089 3.837778 1.944474l54.394106 22.156771c24.254756 9.057156 41.499172 32.442016 41.499172 59.869336V851.686458c0 20.877512 15.14643 38.377779 35.102876 41.857364C484.583426 893.799674 517.844168 896 532.171872 896s47.537276-2.097985 50.044625-2.353837c19.956445-3.581926 35.102875-20.979853 35.102875-41.959705-0.511704-14.481215-0.511704-23.487201 0-27.017957a64.218817 64.218817 0 0 1 39.350016-51.170372c2.660859-1.074578 59.511143-24.76646 62.683707-25.943379 23.026668-9.313008 50.300476-4.554163 69.335854 13.71366l18.165482 18.063141a42.522579 42.522579 0 0 0 51.937928-1.33043l0.102341 0.102341a489.393441 489.393441 0 0 0 66.214462-66.521484 42.522579 42.522579 0 0 0-2.456178-56.492091l-13.867171-13.918341a63.24658 63.24658 0 0 1-18.728356-45.183439c0-7.419704 1.279259-14.634726 3.633096-21.338045 1.790963-5.117037 26.301571-64.167647 28.80892-69.335855 10.387586-21.133364 32.134994-35.563409 57.208476-35.563409v-0.307022h23.436031a42.471409 42.471409 0 0 0 37.968416-38.019587zM992.705224 384.296276c0 7.470874-0.614044 18.881867-1.842134 33.977128h-11.155141c-2.558519 0-5.168208 0.204681-7.675556 0.562874a115.184508 115.184508 0 0 0-95.688596 64.269987 2604.725464 2604.725464 0 0 0-30.906905 74.555233 115.49153 115.49153 0 0 0-6.549808 38.377779c0 30.958075 12.280889 60.176358 33.721276 81.360892l7.931407 7.880238a438.32541 438.32541 0 0 1-47.588446 47.844298l-8.801304-8.698964c-33.260742-31.981483-81.872596-41.29449-123.320597-24.561778a28212.119583 28212.119583 0 0 1-63.19541 26.14806 115.338019 115.338019 0 0 0-71.075647 91.953159 172.853518 172.853518 0 0 0-0.665215 25.482846A875.013367 875.013367 0 0 1 532.171872 844.829628c-6.652148 0-24.101245-0.869896-34.028297-1.33043v-10.848119c0-48.407172-30.19052-91.185604-73.020121-107.099589l-28.041365-11.462164c-8.340771-3.735437-16.886223-7.368534-24.715289-10.080563l-1.535112-0.767556-2.302666-1.074577a114.826316 114.826316 0 0 0-47.895469-10.387586 114.263441 114.263441 0 0 0-81.002699 33.363083l-7.982578 7.880237a866.314404 866.314404 0 0 1-25.124653-23.026668c-4.656504-4.707674-16.374519-17.653778-23.077838-25.073482l7.675556-7.675556c34.130638-34.232979 42.983113-85.608033 23.691882-128.130612L191.377193 492.521614A114.775145 114.775145 0 0 0 89.855174 418.580426a51.682076 51.682076 0 0 0-5.986934-0.307022h-10.745778c-0.665215-11.257482-1.483941-27.734342-1.483941-33.977128v-0.307022c0-6.80566 0.869896-23.998905 1.33043-33.721275h10.899289c47.997809 0 90.418048-29.678816 107.355441-73.787677l23.077838-55.826876a115.133338 115.133338 0 0 0-23.077838-129.051679l-7.675555-7.777897c7.675556-8.698963 18.523675-20.62166 22.975497-25.073482 4.605334-4.554163 17.193245-15.965156 24.561779-22.719646l7.675555 7.675556c2.302667 2.353837 4.758845 4.400652 7.368534 6.140445a114.519293 114.519293 0 0 0 120.762079 17.449097l56.185069-23.33369a114.775145 114.775145 0 0 0 74.862254-101.829041c0.204681-1.944474 0.358193-3.940119 0.358193-5.986934v-11.155141a449.275869 449.275869 0 0 1 67.851914 0v11.359823c0 45.132268 26.199231 85.454522 65.907439 104.080537a3167.957752 3167.957752 0 0 0 71.024477 29.474135 114.365782 114.365782 0 0 0 116.412597-21.184534c2.353837-2.046815 6.038104-5.628741 13.304297-13.048445 8.18726 7.317363 20.365808 18.421334 25.073483 23.026667 4.707674 4.758845 16.272178 17.500267 23.026667 25.022312l-7.777897 7.675556a115.235679 115.235679 0 0 0-24.050075 127.311887 15779.407723 15779.407723 0 0 1 24.152416 58.129543 114.877486 114.877486 0 0 0 107.253101 73.429484h10.387585c1.228089 15.299941 1.842133 26.762105 1.842134 34.028297z m-460.533352-281.437047a281.437048 281.437048 0 1 0 0 562.874095 281.437048 281.437048 0 0 0 0-562.874095z m0 25.585186a255.851862 255.851862 0 1 1 0 511.703723 255.851862 255.851862 0 0 1 0-511.703723z m0 153.511117a102.340745 102.340745 0 1 0 0 204.681489 102.340745 102.340745 0 0 0 0-204.681489z"  horiz-adv-x="1074" />

    
    <glyph glyph-name="nav-devicemonitor" unicode="&#58900;" d="M120.470588 896h963.764706a120.470588 120.470588 0 0 0 120.470588-120.470588v-602.352941a120.470588 120.470588 0 0 0-120.470588-120.470589H120.470588a120.470588 120.470588 0 0 0-120.470588 120.470589V775.529412a120.470588 120.470588 0 0 0 120.470588 120.470588z m0-60.235294a60.235294 60.235294 0 0 1-60.235294-60.235294v-602.352941a60.235294 60.235294 0 0 1 60.235294-60.235295h963.764706a60.235294 60.235294 0 0 1 60.235294 60.235295V775.529412a60.235294 60.235294 0 0 1-60.235294 60.235294H120.470588z m579.945412-532.178824L450.620235 581.210353 292.382118 422.912a30.117647 30.117647 0 1 0-42.646589 42.646588l180.705883 180.705883a30.117647 30.117647 0 0 0 43.730823-1.204706l246.543059-273.950118L969.788235 703.247059a30.117647 30.117647 0 1 0 48.188236-36.141177l-271.058824-361.411764a30.117647 30.117647 0 0 0-46.501647-2.108236zM30.117647-67.764706h1144.470588a30.117647 30.117647 0 1 0 0-60.235294H30.117647a30.117647 30.117647 0 1 0 0 60.235294z"  horiz-adv-x="1204" />

    
    <glyph glyph-name="basicconfig" unicode="&#58901;" d="M215.578947 518.736842v-404.210526A188.631579 188.631579 0 0 0 26.947368-74.10526300000004a26.947368 26.947368 0 1 0 0 53.894737A134.736842 134.736842 0 0 1 161.684211 114.52631599999995V527.898947A161.738105 161.738105 0 1 0 215.578947 518.736842z m0 53.894737a107.789474 107.789474 0 1 1 0 215.578947 107.789474 107.789474 0 0 1 0-215.578947z m646.736842-332.530526V653.473684A188.631579 188.631579 0 0 0 1050.947368 842.105263a26.947368 26.947368 0 1 0 0-53.894737A134.736842 134.736842 0 0 1 916.210526 653.473684V249.26315799999998a161.684211 161.684211 0 1 0-53.894737-9.162105z m53.894737-44.732632a107.789474 107.789474 0 1 1 0-215.578947 107.789474 107.789474 0 0 1 0 215.578947z m-323.368421 29.157053V-74.10526300000004a26.947368 26.947368 0 1 0-53.894737 0v298.630737a161.684211 161.684211 0 0 0 0 318.949052V842.105263a26.947368 26.947368 0 1 0 53.894737 0v-298.630737a161.684211 161.684211 0 0 0 0-318.949052z m-26.947368 51.685052a107.789474 107.789474 0 1 1 0 215.578948 107.789474 107.789474 0 0 1 0-215.578948z"  horiz-adv-x="1077" />

    
    <glyph glyph-name="delete" unicode="&#58902;" d="M512.001726 504.414609L877.587361 870.000244a85.158545 85.158545 0 0 0 120.414184-120.414183L632.415909 384.000426l365.585636-365.585636a85.158545 85.158545 0 0 0-120.414184-120.414183L512.001726 263.58624299999997l-365.585636-365.585636a85.158545 85.158545 0 1 0-120.414183 120.414183L391.587543 384.000426 26.001907 749.586061A85.158545 85.158545 0 1 0 146.41609 870.000244L512.001726 504.414609z"  horiz-adv-x="1024" />

    
    <glyph glyph-name="add" unicode="&#58903;" d="M438.857143 457.142857V822.857143a73.142857 73.142857 0 1 0 146.285714 0v-365.714286h365.714286a73.142857 73.142857 0 0 0 0-146.285714H585.142857v-365.714286a73.142857 73.142857 0 0 0-146.285714 0V310.85714299999995H73.142857a73.142857 73.142857 0 1 0 0 146.285714h365.714286z"  horiz-adv-x="1024" />

    
    <glyph glyph-name="add-build" unicode="&#58904;" d="M64 896h384a64 64 0 0 0 64-64v-640a64 64 0 0 0-64-64H64a64 64 0 0 0-64 64V832a64 64 0 0 0 64 64z m806.4-128h128a25.6 25.6 0 0 0 25.6-25.6v-128a25.6 25.6 0 0 0-25.6-25.6H870.4a25.6 25.6 0 0 0-25.6 25.6V742.4a25.6 25.6 0 0 0 25.6 25.6zM128-102.39999999999998V678.4a64 64 0 0 0 64 64h384a64 64 0 0 0 64-64v-294.4h204.8a51.2 51.2 0 0 0 51.2-51.2v-435.2h115.2a12.8 12.8 0 0 0 0-25.6H12.8a12.8 12.8 0 0 0 0 25.6h115.2z m512 0h230.4V332.79999999999995a25.6 25.6 0 0 1-25.6 25.6H640v-460.8z m-486.4 0h460.8V678.4a38.4 38.4 0 0 1-38.4 38.4H192a38.4 38.4 0 0 1-38.4-38.4v-780.8z m89.6 691.2h204.8a12.8 12.8 0 0 0 0-25.6H243.2a12.8 12.8 0 0 0 0 25.6z m0-204.8h128a12.8 12.8 0 0 0 0-25.6H243.2a12.8 12.8 0 0 0 0 25.6zM230.4 486.4m12.8 0l281.6 0q12.8 0 12.8-12.8l0 0q0-12.8-12.8-12.8l-281.6 0q-12.8 0-12.8 12.8l0 0q0 12.8 12.8 12.8Z"  horiz-adv-x="1024" />

    
    <glyph glyph-name="add-meter" unicode="&#58905;" d="M950.528 851.6864a12.8 12.8 0 0 0 21.7344-12.3904l-42.432-134.3616h71.936a12.8 12.8 0 0 0 9.536-21.3376L828.6848 479.5136a12.8 12.8 0 0 0-21.76 12.3904l42.4448 134.3616h-71.936a12.8 12.8 0 0 0-9.536 21.3376L950.5152 851.6864zM70.4 896h537.6a64 64 0 0 0 64-64v-768a64 64 0 0 0-64-64H70.4a64 64 0 0 0-64 64V832a64 64 0 0 0 64 64zM185.6 844.8h665.6a51.2 51.2 0 0 0 51.2-51.2v-870.4a51.2 51.2 0 0 0-51.2-51.2H185.6a51.2 51.2 0 0 0-51.2 51.2V793.6a51.2 51.2 0 0 0 51.2 51.2z m0-25.6a25.6 25.6 0 0 1-25.6-25.6v-870.4a25.6 25.6 0 0 1 25.6-25.6h665.6a25.6 25.6 0 0 1 25.6 25.6V793.6a25.6 25.6 0 0 1-25.6 25.6H185.6z m64-76.8h537.6a25.6 25.6 0 0 0 25.6-25.6v-204.8a25.6 25.6 0 0 0-25.6-25.6H249.6a25.6 25.6 0 0 0-25.6 25.6V716.8a25.6 25.6 0 0 0 25.6 25.6z m0-25.6v-204.8h537.6V716.8H249.6z m64-128h409.6a12.8 12.8 0 0 0 0-25.6H313.6a12.8 12.8 0 0 0 0 25.6z m169.3696-548.608l110.5024 132.608H416a12.8 12.8 0 0 0-9.8304 20.992l128 153.6a12.8 12.8 0 1 0 19.6608-16.384L443.328 198.39999999999998H620.8a12.8 12.8 0 0 0 9.8304-20.992l-128-153.6a12.8 12.8 0 1 0-19.6608 16.384zM300.8 665.6m12.8 0l204.8 0q12.8 0 12.8-12.8l0 0q0-12.8-12.8-12.8l-204.8 0q-12.8 0-12.8 12.8l0 0q0 12.8 12.8 12.8Z"  horiz-adv-x="1024" />

    


  </font>
</defs>
</svg>
